<svg width="32" height="32" viewBox="0 0 32 32" fill="none" xmlns="http://www.w3.org/2000/svg">
<mask id="mask0_1047_534" style="mask-type:alpha" maskUnits="userSpaceOnUse" x="0" y="0" width="32" height="32">
<rect width="32" height="32" fill="#D9D9D9"/>
</mask>
<g mask="url(#mask0_1047_534)">
<path d="M20.9231 16.5127L15.9027 11.7027C15.3163 11.1384 14.827 10.5073 14.4347 9.80933C14.0423 9.11111 13.8461 8.35078 13.8461 7.52833C13.8461 6.54811 14.1892 5.715 14.8754 5.029C15.5614 4.343 16.3944 4 17.3744 4C18.1026 4 18.7651 4.197 19.3617 4.591C19.9582 4.985 20.4786 5.46322 20.9231 6.02567C21.3675 5.46322 21.8881 4.985 22.4847 4.591C23.0812 4.197 23.7435 4 24.4717 4C25.452 4 26.2851 4.343 26.9711 5.029C27.6571 5.715 28.0001 6.54811 28.0001 7.52833C28.0001 8.35078 27.8052 9.11111 27.4154 9.80933C27.0256 10.5073 26.5376 11.1384 25.9514 11.7027L20.9231 16.5127ZM20.9231 14.677L24.9154 10.854C25.389 10.3976 25.7992 9.892 26.1461 9.33733C26.4932 8.78244 26.6667 8.17944 26.6667 7.52833C26.6667 6.91967 26.4531 6.40167 26.0257 5.97433C25.5984 5.547 25.0804 5.33333 24.4717 5.33333C23.9384 5.33333 23.4603 5.49278 23.0374 5.81167C22.6143 6.13033 22.2343 6.50589 21.8974 6.93833L20.9231 8.159L19.9487 6.93833C19.6121 6.50589 19.2322 6.13033 18.8091 5.81167C18.386 5.49278 17.9077 5.33333 17.3744 5.33333C16.766 5.33333 16.2481 5.547 15.8207 5.97433C15.3932 6.40167 15.1794 6.91967 15.1794 7.52833C15.1794 8.17944 15.353 8.78244 15.7001 9.33733C16.0472 9.892 16.4574 10.3976 16.9307 10.854L20.9231 14.677ZM8.53841 24.8717L18.6257 27.8153L26.6104 25.3487C26.5846 24.9436 26.4636 24.6517 26.2474 24.473C26.031 24.2943 25.7861 24.205 25.5127 24.205H19.1867C18.623 24.205 18.1121 24.1828 17.6541 24.1383C17.1959 24.0939 16.7265 23.988 16.2461 23.8207L13.3257 22.864L13.7771 21.546L16.4771 22.523C16.9062 22.6854 17.3933 22.7829 17.9384 22.8153C18.4837 22.8478 19.2307 22.8666 20.1794 22.8717C20.1794 22.4563 20.103 22.1204 19.9501 21.864C19.7972 21.6076 19.578 21.429 19.2924 21.3283L11.6207 18.5127C11.5694 18.4958 11.5223 18.483 11.4794 18.4743C11.4367 18.4659 11.3897 18.4617 11.3384 18.4617H8.53841V24.8717ZM3.20508 28V17.1283H11.3084C11.4329 17.1283 11.5609 17.1423 11.6924 17.1703C11.824 17.1986 11.9462 17.2316 12.0591 17.2693L19.7641 20.0923C20.241 20.2734 20.6516 20.5991 20.9961 21.0693C21.3405 21.5393 21.5127 22.1401 21.5127 22.8717H25.5127C26.3163 22.8717 26.9317 23.123 27.3591 23.6257C27.7864 24.1281 28.0001 24.7657 28.0001 25.5383V26.359L18.6924 29.2307L8.53841 26.2717V28H3.20508ZM4.53841 26.6667H7.20508V18.4617H4.53841V26.6667Z" fill="#1C1B1F"/>
</g>
</svg>
