<svg viewBox="0 0 96 96" fill="none" xmlns="http://www.w3.org/2000/svg">
<g id="Rectangle 39590298">
<path d="M44 0H52V70H44V0Z" fill="#BEFF9B"/>
<path d="M79.1127 11.2304L84.7696 16.8873L63.5564 38.1005L57.8995 32.4437L79.1127 11.2304Z" fill="#BEFF9B"/>
<path d="M96 44V52L66 52V44L96 44Z" fill="#BEFF9B"/>
<path d="M84.7696 79.1127L79.1127 84.7696L57.8995 63.5564L63.5564 57.8995L84.7696 79.1127Z" fill="#BEFF9B"/>
<path d="M52 96H44L44 66H52L52 96Z" fill="#BEFF9B"/>
<path d="M16.8873 84.7695L11.2304 79.1127L32.4436 57.8995L38.1005 63.5563L16.8873 84.7695Z" fill="#BEFF9B"/>
<path d="M0 52L9.53992e-08 44H68V52H0Z" fill="#BEFF9B"/>
<path d="M11.2305 16.8873L16.8873 11.2304L38.1005 32.4436L32.4437 38.1005L11.2305 16.8873Z" fill="#BEFF9B"/>
</g>
</svg>
